<svg width="141" height="40" viewBox="0 0 141 40" fill="none" xmlns="http://www.w3.org/2000/svg">
<path d="M20.9919 0C21.4192 0.0108315 21.9043 0.0321337 22.1969 0.432732C22.6541 1.05801 23.0707 1.99873 23.4142 2.71445C24.0083 3.94257 24.5908 5.17727 25.1621 6.41833L29.7281 16.0196C30.3633 17.3433 31.1289 19.0819 31.7878 20.3441C31.416 20.5275 30.2011 20.7891 29.7453 20.9271C28.2569 21.3771 26.7391 21.7368 25.2609 22.2234C24.6076 21.0546 24.0964 19.7943 23.4943 18.591C22.601 16.8065 21.8274 14.9078 20.9145 13.1395C18.6818 18.0512 16.353 22.8223 14.1786 27.7951C18.0443 26.0313 22.0087 24.5424 26.0476 23.3377C26.4334 23.2258 27.8664 22.7785 28.1553 22.7499L28.2266 22.7941C28.1143 23.0215 26.6674 24.0517 26.3784 24.2739C20.6139 28.6582 14.7838 32.9375 8.89091 37.1098C7.19362 38.3346 5.62243 40.0209 3.48299 39.9998C2.75597 39.9926 2.00635 39.9485 1.27924 39.911C0.8527 39.8946 0.426304 39.8751 0 39.853C0.572257 38.6246 1.45735 36.9856 2.08305 35.7495C3.13474 33.5068 4.29458 31.3129 5.38262 29.1065L8.54327 22.7583C8.97325 21.9027 9.37183 21.0295 9.81863 20.1825C9.95974 19.8533 10.25 19.3117 10.4189 19.0068C10.574 18.5578 11.5462 16.6266 11.8 16.1629C12.2668 15.3105 12.9053 13.8617 13.3661 13.0907C13.553 12.5882 14.2673 11.2941 14.5377 10.747L18.2675 3.2599C18.5648 2.66742 18.8808 2.05149 19.1736 1.45865C19.6728 0.447611 19.8526 0.0403966 20.9919 0Z" fill="url(#paint0_linear_2709_96)"/>
<path d="M34.8697 32.3705C36.5716 32.3438 38.2739 32.3387 39.9757 32.3551C40.0037 34.1302 40.007 35.9057 39.9851 37.6813C38.4365 37.6993 36.8884 37.7054 35.3399 37.6993C35.1558 37.7013 35.0552 37.7368 34.9158 37.6449L34.9061 37.5176C34.8222 36.0705 34.8674 33.8668 34.8697 32.3705Z" fill="url(#paint1_linear_2709_96)"/>
<path d="M23.3128 32.4481C23.3645 32.4009 23.3962 32.3783 23.4661 32.3788C25.0557 32.3875 26.6671 32.3541 28.2548 32.3731L28.2562 37.7019C26.826 37.6973 25.1214 37.6429 23.7178 37.6983C23.5654 37.7014 23.5108 37.6963 23.358 37.6773C23.2569 37.5064 23.3114 32.946 23.3128 32.4481Z" fill="url(#paint2_linear_2709_96)"/>
<path d="M30.6466 27.2497C31.5055 27.2323 32.3807 27.1897 33.2334 27.297C33.3155 28.8629 33.1999 30.6029 33.2684 32.2053C32.6332 32.2125 31.9976 32.2258 31.3624 32.2464C30.4472 32.2536 29.532 32.2433 28.6172 32.2166L28.626 27.2619C29.2994 27.2665 29.9733 27.2624 30.6466 27.2497Z" fill="url(#paint3_linear_2709_96)"/>
<path d="M32.8702 21.7409C34.3055 21.7044 35.8447 21.7355 37.2936 21.7263C37.2679 23.2456 37.2465 25.3129 37.2814 26.8139C35.8443 26.8153 34.3353 26.7975 32.9056 26.8697C32.8385 25.2527 32.8716 23.3793 32.8702 21.7409Z" fill="url(#paint4_linear_2709_96)"/>
<path d="M3.70699 39.9251H0.0703125L2.33095 35.2707C3.70699 33.6471 10.2137 29.7721 13.8307 27.9104C17.4477 26.0486 25.2486 23.6168 28.5249 22.7148L6.7048 38.8968C5.13218 39.7627 4.051 39.9431 3.70699 39.9251Z" fill="url(#paint5_linear_2709_96)"/>
<mask id="path-7-outside-1_2709_96" maskUnits="userSpaceOnUse" x="51" y="10" width="87" height="19" fill="black">
<rect fill="white" x="51" y="10" width="87" height="19"/>
<path d="M63.736 24.28H56.44L55.096 28H52.792L58.84 11.368H61.36L67.384 28H65.08L63.736 24.28ZM63.112 22.504L60.088 14.056L57.064 22.504H63.112ZM82.4039 14.848V28H80.2199V26.056C79.8039 26.728 79.2199 27.256 78.4679 27.64C77.7319 28.008 76.9159 28.192 76.0199 28.192C74.9959 28.192 74.0759 27.984 73.2599 27.568C72.4439 27.136 71.7959 26.496 71.3159 25.648C70.8519 24.8 70.6199 23.768 70.6199 22.552V14.848H72.7799V22.264C72.7799 23.56 73.1079 24.56 73.7639 25.264C74.4199 25.952 75.3159 26.296 76.4519 26.296C77.6199 26.296 78.5399 25.936 79.2119 25.216C79.8839 24.496 80.2199 23.448 80.2199 22.072V14.848H82.4039ZM85.9954 21.4C85.9954 20.04 86.2674 18.856 86.8114 17.848C87.3554 16.824 88.1074 16.032 89.0674 15.472C90.0434 14.912 91.1554 14.632 92.4034 14.632C94.0194 14.632 95.3474 15.024 96.3874 15.808C97.4434 16.592 98.1394 17.68 98.4754 19.072H96.1234C95.8994 18.272 95.4594 17.64 94.8034 17.176C94.1634 16.712 93.3634 16.48 92.4034 16.48C91.1554 16.48 90.1474 16.912 89.3794 17.776C88.6114 18.624 88.2274 19.832 88.2274 21.4C88.2274 22.984 88.6114 24.208 89.3794 25.072C90.1474 25.936 91.1554 26.368 92.4034 26.368C93.3634 26.368 94.1634 26.144 94.8034 25.696C95.4434 25.248 95.8834 24.608 96.1234 23.776H98.4754C98.1234 25.12 97.4194 26.2 96.3634 27.016C95.3074 27.816 93.9874 28.216 92.4034 28.216C91.1554 28.216 90.0434 27.936 89.0674 27.376C88.1074 26.816 87.3554 26.024 86.8114 25C86.2674 23.976 85.9954 22.776 85.9954 21.4ZM104.774 16.648V24.4C104.774 25.04 104.91 25.496 105.182 25.768C105.454 26.024 105.926 26.152 106.598 26.152H108.206V28H106.238C105.022 28 104.11 27.72 103.502 27.16C102.894 26.6 102.59 25.68 102.59 24.4V16.648H100.886V14.848H102.59V11.536H104.774V14.848H108.206V16.648H104.774ZM123.236 14.848V28H121.052V26.056C120.636 26.728 120.052 27.256 119.3 27.64C118.564 28.008 117.748 28.192 116.852 28.192C115.828 28.192 114.908 27.984 114.092 27.568C113.276 27.136 112.628 26.496 112.148 25.648C111.684 24.8 111.452 23.768 111.452 22.552V14.848H113.612V22.264C113.612 23.56 113.94 24.56 114.596 25.264C115.252 25.952 116.148 26.296 117.284 26.296C118.452 26.296 119.372 25.936 120.044 25.216C120.716 24.496 121.052 23.448 121.052 22.072V14.848H123.236ZM132.299 28.216C131.291 28.216 130.387 28.048 129.587 27.712C128.787 27.36 128.155 26.88 127.691 26.272C127.227 25.648 126.971 24.936 126.923 24.136H129.179C129.243 24.792 129.547 25.328 130.091 25.744C130.651 26.16 131.379 26.368 132.275 26.368C133.107 26.368 133.763 26.184 134.243 25.816C134.723 25.448 134.963 24.984 134.963 24.424C134.963 23.848 134.707 23.424 134.195 23.152C133.683 22.864 132.891 22.584 131.819 22.312C130.843 22.056 130.043 21.8 129.419 21.544C128.811 21.272 128.283 20.88 127.835 20.368C127.403 19.84 127.187 19.152 127.187 18.304C127.187 17.632 127.387 17.016 127.787 16.456C128.187 15.896 128.755 15.456 129.491 15.136C130.227 14.8 131.067 14.632 132.011 14.632C133.467 14.632 134.643 15 135.539 15.736C136.435 16.472 136.915 17.48 136.979 18.76H134.795C134.747 18.072 134.467 17.52 133.955 17.104C133.459 16.688 132.787 16.48 131.939 16.48C131.155 16.48 130.531 16.648 130.067 16.984C129.603 17.32 129.371 17.76 129.371 18.304C129.371 18.736 129.507 19.096 129.779 19.384C130.067 19.656 130.419 19.88 130.835 20.056C131.267 20.216 131.859 20.4 132.611 20.608C133.555 20.864 134.323 21.12 134.915 21.376C135.507 21.616 136.011 21.984 136.427 22.48C136.859 22.976 137.083 23.624 137.099 24.424C137.099 25.144 136.899 25.792 136.499 26.368C136.099 26.944 135.531 27.4 134.795 27.736C134.075 28.056 133.243 28.216 132.299 28.216Z"/>
</mask>
<path d="M63.736 24.28H56.44L55.096 28H52.792L58.84 11.368H61.36L67.384 28H65.08L63.736 24.28ZM63.112 22.504L60.088 14.056L57.064 22.504H63.112ZM82.4039 14.848V28H80.2199V26.056C79.8039 26.728 79.2199 27.256 78.4679 27.64C77.7319 28.008 76.9159 28.192 76.0199 28.192C74.9959 28.192 74.0759 27.984 73.2599 27.568C72.4439 27.136 71.7959 26.496 71.3159 25.648C70.8519 24.8 70.6199 23.768 70.6199 22.552V14.848H72.7799V22.264C72.7799 23.56 73.1079 24.56 73.7639 25.264C74.4199 25.952 75.3159 26.296 76.4519 26.296C77.6199 26.296 78.5399 25.936 79.2119 25.216C79.8839 24.496 80.2199 23.448 80.2199 22.072V14.848H82.4039ZM85.9954 21.4C85.9954 20.04 86.2674 18.856 86.8114 17.848C87.3554 16.824 88.1074 16.032 89.0674 15.472C90.0434 14.912 91.1554 14.632 92.4034 14.632C94.0194 14.632 95.3474 15.024 96.3874 15.808C97.4434 16.592 98.1394 17.68 98.4754 19.072H96.1234C95.8994 18.272 95.4594 17.64 94.8034 17.176C94.1634 16.712 93.3634 16.48 92.4034 16.48C91.1554 16.48 90.1474 16.912 89.3794 17.776C88.6114 18.624 88.2274 19.832 88.2274 21.4C88.2274 22.984 88.6114 24.208 89.3794 25.072C90.1474 25.936 91.1554 26.368 92.4034 26.368C93.3634 26.368 94.1634 26.144 94.8034 25.696C95.4434 25.248 95.8834 24.608 96.1234 23.776H98.4754C98.1234 25.12 97.4194 26.2 96.3634 27.016C95.3074 27.816 93.9874 28.216 92.4034 28.216C91.1554 28.216 90.0434 27.936 89.0674 27.376C88.1074 26.816 87.3554 26.024 86.8114 25C86.2674 23.976 85.9954 22.776 85.9954 21.4ZM104.774 16.648V24.4C104.774 25.04 104.91 25.496 105.182 25.768C105.454 26.024 105.926 26.152 106.598 26.152H108.206V28H106.238C105.022 28 104.11 27.72 103.502 27.16C102.894 26.6 102.59 25.68 102.59 24.4V16.648H100.886V14.848H102.59V11.536H104.774V14.848H108.206V16.648H104.774ZM123.236 14.848V28H121.052V26.056C120.636 26.728 120.052 27.256 119.3 27.64C118.564 28.008 117.748 28.192 116.852 28.192C115.828 28.192 114.908 27.984 114.092 27.568C113.276 27.136 112.628 26.496 112.148 25.648C111.684 24.8 111.452 23.768 111.452 22.552V14.848H113.612V22.264C113.612 23.56 113.94 24.56 114.596 25.264C115.252 25.952 116.148 26.296 117.284 26.296C118.452 26.296 119.372 25.936 120.044 25.216C120.716 24.496 121.052 23.448 121.052 22.072V14.848H123.236ZM132.299 28.216C131.291 28.216 130.387 28.048 129.587 27.712C128.787 27.36 128.155 26.88 127.691 26.272C127.227 25.648 126.971 24.936 126.923 24.136H129.179C129.243 24.792 129.547 25.328 130.091 25.744C130.651 26.16 131.379 26.368 132.275 26.368C133.107 26.368 133.763 26.184 134.243 25.816C134.723 25.448 134.963 24.984 134.963 24.424C134.963 23.848 134.707 23.424 134.195 23.152C133.683 22.864 132.891 22.584 131.819 22.312C130.843 22.056 130.043 21.8 129.419 21.544C128.811 21.272 128.283 20.88 127.835 20.368C127.403 19.84 127.187 19.152 127.187 18.304C127.187 17.632 127.387 17.016 127.787 16.456C128.187 15.896 128.755 15.456 129.491 15.136C130.227 14.8 131.067 14.632 132.011 14.632C133.467 14.632 134.643 15 135.539 15.736C136.435 16.472 136.915 17.48 136.979 18.76H134.795C134.747 18.072 134.467 17.52 133.955 17.104C133.459 16.688 132.787 16.48 131.939 16.48C131.155 16.48 130.531 16.648 130.067 16.984C129.603 17.32 129.371 17.76 129.371 18.304C129.371 18.736 129.507 19.096 129.779 19.384C130.067 19.656 130.419 19.88 130.835 20.056C131.267 20.216 131.859 20.4 132.611 20.608C133.555 20.864 134.323 21.12 134.915 21.376C135.507 21.616 136.011 21.984 136.427 22.48C136.859 22.976 137.083 23.624 137.099 24.424C137.099 25.144 136.899 25.792 136.499 26.368C136.099 26.944 135.531 27.4 134.795 27.736C134.075 28.056 133.243 28.216 132.299 28.216Z" fill="#262626"/>
<defs>
<linearGradient id="paint0_linear_2709_96" x1="25.8066" y1="30.1702" x2="8.9708" y2="20.2791" gradientUnits="userSpaceOnUse">
<stop stop-color="#103B39"/>
<stop offset="1" stop-color="#1E7C78"/>
</linearGradient>
<linearGradient id="paint1_linear_2709_96" x1="39.9161" y1="34.9299" x2="34.9711" y2="35.0501" gradientUnits="userSpaceOnUse">
<stop stop-color="#103B39"/>
<stop offset="1" stop-color="#1E7C78"/>
</linearGradient>
<linearGradient id="paint2_linear_2709_96" x1="28.6206" y1="35.8488" x2="23.3101" y2="34.4003" gradientUnits="userSpaceOnUse">
<stop stop-color="#103B39"/>
<stop offset="1" stop-color="#1E7C78"/>
</linearGradient>
<linearGradient id="paint3_linear_2709_96" x1="33.5578" y1="30.9876" x2="28.1167" y2="28.8692" gradientUnits="userSpaceOnUse">
<stop stop-color="#103B39"/>
<stop offset="1" stop-color="#1E7C78"/>
</linearGradient>
<linearGradient id="paint4_linear_2709_96" x1="37.5839" y1="25.7904" x2="32.2971" y2="23.1742" gradientUnits="userSpaceOnUse">
<stop stop-color="#103B39"/>
<stop offset="1" stop-color="#1E7C78"/>
</linearGradient>
<linearGradient id="paint5_linear_2709_96" x1="14.2976" y1="22.7148" x2="14.2976" y2="39.9263" gradientUnits="userSpaceOnUse">
<stop stop-color="#103B39"/>
<stop offset="1" stop-color="#1E7C78"/>
</linearGradient>
</defs>
</svg>
